<svg width="1600" height="775" xmlns="http://www.w3.org/2000/svg"><g><path d="M-116.23100778087974,-114.4078906159848L-97.42079841904342,810.1780875585973L-91.67244477197528,557.2023468185216Z" fill="#ff5c0a" stroke="#ff5c0a"></path><path d="M-116.23100778087974,-114.4078906159848L-91.67244477197528,557.2023468185216L-85.31319153495133,174.444765932858Z" fill="#b36233" stroke="#b36233"></path><path d="M-116.23100778087974,-114.4078906159848L-85.31319153495133,174.444765932858L-87.95675944536924,71.36075025424361Z" fill="#d42c3b" stroke="#d42c3b"></path><path d="M-116.23100778087974,-114.4078906159848L-87.95675944536924,71.36075025424361L98.59967289492488,-131.44173240289092Z" fill="#ff0401" stroke="#ff0401"></path><path d="M98.59967289492488,-131.44173240289092L-87.95675944536924,71.36075025424361L51.89847104251385,100.24968881160021Z" fill="#dc2c34" stroke="#dc2c34"></path><path d="M98.59967289492488,-131.44173240289092L51.89847104251385,100.24968881160021L199.5395119395107,93.29036531969905Z" fill="#ab4861" stroke="#ab4861"></path><path d="M98.59967289492488,-131.44173240289092L199.5395119395107,93.29036531969905L278.8796859886497,-26.984823122620583Z" fill="#9f4259" stroke="#9f4259"></path><path d="M98.59967289492488,-131.44173240289092L278.8796859886497,-26.984823122620583L325.03798951394856,-43.398199528455734Z" fill="#9d4353" stroke="#9d4353"></path><path d="M98.59967289492488,-131.44173240289092L325.03798951394856,-43.398199528455734L520.8447724767029,-41.07704356312752Z" fill="#a24d3d" stroke="#a24d3d"></path><path d="M98.59967289492488,-131.44173240289092L520.8447724767029,-41.07704356312752L921.8757138121873,-110.17815375700593Z" fill="#bc3c3f" stroke="#bc3c3f"></path><path d="M278.8796859886497,-26.984823122620583L199.5395119395107,93.29036531969905L371.7470118496567,40.43039574287832Z" fill="#7d7079" stroke="#7d7079"></path><path d="M278.8796859886497,-26.984823122620583L371.7470118496567,40.43039574287832L325.03798951394856,-43.398199528455734Z" fill="#a25a42" stroke="#a25a42"></path><path d="M325.03798951394856,-43.398199528455734L371.7470118496567,40.43039574287832L520.8447724767029,-41.07704356312752Z" fill="#a75f2a" stroke="#a75f2a"></path><path d="M520.8447724767029,-41.07704356312752L371.7470118496567,40.43039574287832L517.5030600931495,108.04963745176792Z" fill="#906d68" stroke="#906d68"></path><path d="M520.8447724767029,-41.07704356312752L517.5030600931495,108.04963745176792L629.4532546307892,-18.011162113398314Z" fill="#b34d69" stroke="#b34d69"></path><path d="M520.8447724767029,-41.07704356312752L629.4532546307892,-18.011162113398314L921.8757138121873,-110.17815375700593Z" fill="#e3322d" stroke="#e3322d"></path><path d="M629.4532546307892,-18.011162113398314L517.5030600931495,108.04963745176792L628.6437170393765,102.929025599733Z" fill="#8b619e" stroke="#8b619e"></path><path d="M629.4532546307892,-18.011162113398314L628.6437170393765,102.929025599733L783.3716936968267,92.28163434192538Z" fill="#a6667a" stroke="#a6667a"></path><path d="M629.4532546307892,-18.011162113398314L783.3716936968267,92.28163434192538L809.2007862590253,-38.90387596562505Z" fill="#e45135" stroke="#e45135"></path><path d="M629.4532546307892,-18.011162113398314L809.2007862590253,-38.90387596562505L921.8757138121873,-110.17815375700593Z" fill="#fc3e06" stroke="#fc3e06"></path><path d="M809.2007862590253,-38.90387596562505L783.3716936968267,92.28163434192538L924.8655160143971,39.44081453606486Z" fill="#e17034" stroke="#e17034"></path><path d="M809.2007862590253,-38.90387596562505L924.8655160143971,39.44081453606486L921.8757138121873,-110.17815375700593Z" fill="#ff5b0b" stroke="#ff5b0b"></path><path d="M921.8757138121873,-110.17815375700593L924.8655160143971,39.44081453606486L1123.18578036502,44.08135344274342Z" fill="#ff8921" stroke="#ff8921"></path><path d="M921.8757138121873,-110.17815375700593L1123.18578036502,44.08135344274342L1155.2547140512615,-67.29761118069291Z" fill="#f06418" stroke="#f06418"></path><path d="M921.8757138121873,-110.17815375700593L1155.2547140512615,-67.29761118069291L1472.7489726059139,-57.98958999104798Z" fill="#d63215" stroke="#d63215"></path><path d="M921.8757138121873,-110.17815375700593L1472.7489726059139,-57.98958999104798L1604.4153193663806,-50.36375753581524Z" fill="#ee3a46" stroke="#ee3a46"></path><path d="M921.8757138121873,-110.17815375700593L1604.4153193663806,-50.36375753581524L1665.4643098264933,-46.308723539114Z" fill="#fb405f" stroke="#fb405f"></path><path d="M1155.2547140512615,-67.29761118069291L1123.18578036502,44.08135344274342L1268.1408147141337,-26.479928009212017Z" fill="#d73a17" stroke="#d73a17"></path><path d="M1155.2547140512615,-67.29761118069291L1268.1408147141337,-26.479928009212017L1472.7489726059139,-57.98958999104798Z" fill="#e7363a" stroke="#e7363a"></path><path d="M1268.1408147141337,-26.479928009212017L1123.18578036502,44.08135344274342L1264.8745950870216,95.60041428543627Z" fill="#b25551" stroke="#b25551"></path><path d="M1268.1408147141337,-26.479928009212017L1264.8745950870216,95.60041428543627L1411.1067721713334,131.62537367083132Z" fill="#a87191" stroke="#a87191"></path><path d="M1268.1408147141337,-26.479928009212017L1411.1067721713334,131.62537367083132L1472.7489726059139,-57.98958999104798Z" fill="#e95a7a" stroke="#e95a7a"></path><path d="M1472.7489726059139,-57.98958999104798L1411.1067721713334,131.62537367083132L1543.1723628100008,132.11478472687304Z" fill="#bc83cf" stroke="#bc83cf"></path><path d="M1472.7489726059139,-57.98958999104798L1543.1723628100008,132.11478472687304L1604.4153193663806,-50.36375753581524Z" fill="#f76699" stroke="#f76699"></path><path d="M1604.4153193663806,-50.36375753581524L1543.1723628100008,132.11478472687304L1665.4643098264933,-46.308723539114Z" fill="#f46f9c" stroke="#f46f9c"></path><path d="M1665.4643098264933,-46.308723539114L1543.1723628100008,132.11478472687304L1741.6880339663476,98.26601182110608Z" fill="#c392cc" stroke="#c392cc"></path><path d="M-87.95675944536924,71.36075025424361L-85.31319153495133,174.444765932858L51.89847104251385,100.24968881160021Z" fill="#a35461" stroke="#a35461"></path><path d="M51.89847104251385,100.24968881160021L-85.31319153495133,174.444765932858L49.66691658832133,250.81587449647486Z" fill="#9b7249" stroke="#9b7249"></path><path d="M51.89847104251385,100.24968881160021L49.66691658832133,250.81587449647486L199.5395119395107,93.29036531969905Z" fill="#6e8180" stroke="#6e8180"></path><path d="M199.5395119395107,93.29036531969905L49.66691658832133,250.81587449647486L217.7053026203066,268.8191053457558Z" fill="#62967d" stroke="#62967d"></path><path d="M199.5395119395107,93.29036531969905L217.7053026203066,268.8191053457558L333.72843221761286,171.19161321781576Z" fill="#4ba985" stroke="#4ba985"></path><path d="M199.5395119395107,93.29036531969905L333.72843221761286,171.19161321781576L371.7470118496567,40.43039574287832Z" fill="#4298ab" stroke="#4298ab"></path><path d="M371.7470118496567,40.43039574287832L333.72843221761286,171.19161321781576L517.5030600931495,108.04963745176792Z" fill="#4aa48e" stroke="#4aa48e"></path><path d="M517.5030600931495,108.04963745176792L333.72843221761286,171.19161321781576L554.6370951924473,198.41130249202251Z" fill="#5da578" stroke="#5da578"></path><path d="M517.5030600931495,108.04963745176792L554.6370951924473,198.41130249202251L628.6437170393765,102.929025599733Z" fill="#6c869d" stroke="#6c869d"></path><path d="M628.6437170393765,102.929025599733L554.6370951924473,198.41130249202251L723.8537924923003,236.76226747222245Z" fill="#819079" stroke="#819079"></path><path d="M628.6437170393765,102.929025599733L723.8537924923003,236.76226747222245L783.3716936968267,92.28163434192538Z" fill="#908e72" stroke="#908e72"></path><path d="M783.3716936968267,92.28163434192538L723.8537924923003,236.76226747222245L841.62284466438,264.56066753715277Z" fill="#aba436" stroke="#aba436"></path><path d="M783.3716936968267,92.28163434192538L841.62284466438,264.56066753715277L924.8655160143971,39.44081453606486Z" fill="#a5a55c" stroke="#a5a55c"></path><path d="M924.8655160143971,39.44081453606486L841.62284466438,264.56066753715277L995.0836168136448,269.56230517476797Z" fill="#adce3d" stroke="#adce3d"></path><path d="M924.8655160143971,39.44081453606486L995.0836168136448,269.56230517476797L1082.201413968578,226.70766321010888Z" fill="#ace350" stroke="#ace350"></path><path d="M924.8655160143971,39.44081453606486L1082.201413968578,226.70766321010888L1123.18578036502,44.08135344274342Z" fill="#98ba82" stroke="#98ba82"></path><path d="M1123.18578036502,44.08135344274342L1082.201413968578,226.70766321010888L1264.8745950870216,95.60041428543627Z" fill="#819072" stroke="#819072"></path><path d="M1264.8745950870216,95.60041428543627L1082.201413968578,226.70766321010888L1263.4567134082317,244.0779762994498Z" fill="#819345" stroke="#819345"></path><path d="M1264.8745950870216,95.60041428543627L1263.4567134082317,244.0779762994498L1411.1067721713334,131.62537367083132Z" fill="#939584" stroke="#939584"></path><path d="M1411.1067721713334,131.62537367083132L1263.4567134082317,244.0779762994498L1446.3958769571036,253.85430495254695Z" fill="#ac9d8b" stroke="#ac9d8b"></path><path d="M1411.1067721713334,131.62537367083132L1446.3958769571036,253.85430495254695L1543.1723628100008,132.11478472687304Z" fill="#abaab4" stroke="#abaab4"></path><path d="M1543.1723628100008,132.11478472687304L1446.3958769571036,253.85430495254695L1562.4468870833516,175.81459508277476Z" fill="#adb4b0" stroke="#adb4b0"></path><path d="M1543.1723628100008,132.11478472687304L1562.4468870833516,175.81459508277476L1741.6880339663476,98.26601182110608Z" fill="#a6aed3" stroke="#a6aed3"></path><path d="M1741.6880339663476,98.26601182110608L1562.4468870833516,175.81459508277476L1766.271079396829,277.31178291141987Z" fill="#acc5b2" stroke="#acc5b2"></path><path d="M-85.31319153495133,174.444765932858L-91.67244477197528,557.2023468185216L-80.52673062309623,434.0096771623939Z" fill="#ff4c01" stroke="#ff4c01"></path><path d="M-85.31319153495133,174.444765932858L-80.52673062309623,434.0096771623939L49.66691658832133,250.81587449647486Z" fill="#d8355f" stroke="#d8355f"></path><path d="M49.66691658832133,250.81587449647486L-80.52673062309623,434.0096771623939L48.942474285140634,415.1138644013554Z" fill="#e75426" stroke="#e75426"></path><path d="M49.66691658832133,250.81587449647486L48.942474285140634,415.1138644013554L217.7053026203066,268.8191053457558Z" fill="#a75d83" stroke="#a75d83"></path><path d="M217.7053026203066,268.8191053457558L48.942474285140634,415.1138644013554L257.760669272393,335.4194388817996Z" fill="#947682" stroke="#947682"></path><path d="M217.7053026203066,268.8191053457558L257.760669272393,335.4194388817996L333.72843221761286,171.19161321781576Z" fill="#6b8999" stroke="#6b8999"></path><path d="M333.72843221761286,171.19161321781576L257.760669272393,335.4194388817996L360.63859303481877,369.3783541023731Z" fill="#7d7d9b" stroke="#7d7d9b"></path><path d="M333.72843221761286,171.19161321781576L360.63859303481877,369.3783541023731L505.5592614132911,323.9615353848785Z" fill="#808885" stroke="#808885"></path><path d="M333.72843221761286,171.19161321781576L505.5592614132911,323.9615353848785L554.6370951924473,198.41130249202251Z" fill="#729a74" stroke="#729a74"></path><path d="M554.6370951924473,198.41130249202251L505.5592614132911,323.9615353848785L723.8537924923003,236.76226747222245Z" fill="#946e9d" stroke="#946e9d"></path><path d="M723.8537924923003,236.76226747222245L505.5592614132911,323.9615353848785L693.9816814195365,412.0655104983598Z" fill="#be6580" stroke="#be6580"></path><path d="M723.8537924923003,236.76226747222245L693.9816814195365,412.0655104983598L841.3126279693097,373.6089509166777Z" fill="#e17742" stroke="#e17742"></path><path d="M723.8537924923003,236.76226747222245L841.3126279693097,373.6089509166777L841.62284466438,264.56066753715277Z" fill="#db6f61" stroke="#db6f61"></path><path d="M841.62284466438,264.56066753715277L841.3126279693097,373.6089509166777L995.0836168136448,269.56230517476797Z" fill="#df8f61" stroke="#df8f61"></path><path d="M995.0836168136448,269.56230517476797L841.3126279693097,373.6089509166777L1007.5415901001543,422.2419898957014Z" fill="#f3b134" stroke="#f3b134"></path><path d="M995.0836168136448,269.56230517476797L1007.5415901001543,422.2419898957014L1109.449209831655,398.7853611353785Z" fill="#eeb431" stroke="#eeb431"></path><path d="M995.0836168136448,269.56230517476797L1109.449209831655,398.7853611353785L1082.201413968578,226.70766321010888Z" fill="#cf9672" stroke="#cf9672"></path><path d="M1082.201413968578,226.70766321010888L1109.449209831655,398.7853611353785L1263.4567134082317,244.0779762994498Z" fill="#b86f76" stroke="#b86f76"></path><path d="M1263.4567134082317,244.0779762994498L1109.449209831655,398.7853611353785L1244.5560543984175,397.8578529506922Z" fill="#c46b3f" stroke="#c46b3f"></path><path d="M1263.4567134082317,244.0779762994498L1244.5560543984175,397.8578529506922L1380.2188621088862,374.7087238635868Z" fill="#d47369" stroke="#d47369"></path><path d="M1263.4567134082317,244.0779762994498L1380.2188621088862,374.7087238635868L1446.3958769571036,253.85430495254695Z" fill="#cf6bb2" stroke="#cf6bb2"></path><path d="M1446.3958769571036,253.85430495254695L1380.2188621088862,374.7087238635868L1625.8248990029097,429.28716408088803Z" fill="#f28ba3" stroke="#f28ba3"></path><path d="M1446.3958769571036,253.85430495254695L1625.8248990029097,429.28716408088803L1562.4468870833516,175.81459508277476Z" fill="#d881de" stroke="#d881de"></path><path d="M1562.4468870833516,175.81459508277476L1625.8248990029097,429.28716408088803L1766.271079396829,277.31178291141987Z" fill="#dc8bdd" stroke="#dc8bdd"></path><path d="M1766.271079396829,277.31178291141987L1625.8248990029097,429.28716408088803L1704.2497719917446,417.579582715407Z" fill="#faa88d" stroke="#faa88d"></path><path d="M1766.271079396829,277.31178291141987L1704.2497719917446,417.579582715407L1723.2529316749424,509.0607262495905Z" fill="#ffb784" stroke="#ffb784"></path><path d="M1766.271079396829,277.31178291141987L1723.2529316749424,509.0607262495905L1752.7838481869549,647.087683416903Z" fill="#ffe29c" stroke="#ffe29c"></path><path d="M1766.271079396829,277.31178291141987L1752.7838481869549,647.087683416903L1747.5888738501817,927.6028642896563Z" fill="#eda3b9" stroke="#eda3b9"></path><path d="M-80.52673062309623,434.0096771623939L-91.67244477197528,557.2023468185216L48.942474285140634,415.1138644013554Z" fill="#ff7a19" stroke="#ff7a19"></path><path d="M48.942474285140634,415.1138644013554L-91.67244477197528,557.2023468185216L64.64817272499204,624.9127035867423Z" fill="#e1692c" stroke="#e1692c"></path><path d="M48.942474285140634,415.1138644013554L64.64817272499204,624.9127035867423L134.6331745851785,485.475106369704Z" fill="#c78e4b" stroke="#c78e4b"></path><path d="M48.942474285140634,415.1138644013554L134.6331745851785,485.475106369704L257.760669272393,335.4194388817996Z" fill="#b28b4f" stroke="#b28b4f"></path><path d="M257.760669272393,335.4194388817996L134.6331745851785,485.475106369704L175.35552880726755,560.5770892091095Z" fill="#a0af6f" stroke="#a0af6f"></path><path d="M257.760669272393,335.4194388817996L175.35552880726755,560.5770892091095L360.63859303481877,369.3783541023731Z" fill="#9fa555" stroke="#9fa555"></path><path d="M360.63859303481877,369.3783541023731L175.35552880726755,560.5770892091095L410.12193666771054,566.085538174957Z" fill="#9ec15a" stroke="#9ec15a"></path><path d="M360.63859303481877,369.3783541023731L410.12193666771054,566.085538174957L581.4740716014057,491.4156226068735Z" fill="#b0c64c" stroke="#b0c64c"></path><path d="M360.63859303481877,369.3783541023731L581.4740716014057,491.4156226068735L505.5592614132911,323.9615353848785Z" fill="#b6933a" stroke="#b6933a"></path><path d="M505.5592614132911,323.9615353848785L581.4740716014057,491.4156226068735L693.9816814195365,412.0655104983598Z" fill="#cb8057" stroke="#cb8057"></path><path d="M693.9816814195365,412.0655104983598L581.4740716014057,491.4156226068735L685.0235104188323,566.1780147347599Z" fill="#d8a959" stroke="#d8a959"></path><path d="M693.9816814195365,412.0655104983598L685.0235104188323,566.1780147347599L867.4188759550452,581.2145873811096Z" fill="#e89d31" stroke="#e89d31"></path><path d="M693.9816814195365,412.0655104983598L867.4188759550452,581.2145873811096L841.3126279693097,373.6089509166777Z" fill="#ffb015" stroke="#ffb015"></path><path d="M841.3126279693097,373.6089509166777L867.4188759550452,581.2145873811096L990.6286295503378,528.7921238411218Z" fill="#fcd72a" stroke="#fcd72a"></path><path d="M841.3126279693097,373.6089509166777L990.6286295503378,528.7921238411218L1007.5415901001543,422.2419898957014Z" fill="#ffd723" stroke="#ffd723"></path><path d="M1007.5415901001543,422.2419898957014L990.6286295503378,528.7921238411218L1079.391476539895,515.986443143338Z" fill="#f8f137" stroke="#f8f137"></path><path d="M1007.5415901001543,422.2419898957014L1079.391476539895,515.986443143338L1109.449209831655,398.7853611353785Z" fill="#f1cf2a" stroke="#f1cf2a"></path><path d="M1109.449209831655,398.7853611353785L1079.391476539895,515.986443143338L1244.5560543984175,397.8578529506922Z" fill="#dfa925" stroke="#dfa925"></path><path d="M1244.5560543984175,397.8578529506922L1079.391476539895,515.986443143338L1321.033805720508,495.0128699373454Z" fill="#d6a433" stroke="#d6a433"></path><path d="M1244.5560543984175,397.8578529506922L1321.033805720508,495.0128699373454L1380.2188621088862,374.7087238635868Z" fill="#ea964b" stroke="#ea964b"></path><path d="M1380.2188621088862,374.7087238635868L1321.033805720508,495.0128699373454L1418.7769999913871,566.6966467816383Z" fill="#f6ba72" stroke="#f6ba72"></path><path d="M1380.2188621088862,374.7087238635868L1418.7769999913871,566.6966467816383L1601.7465510684997,526.9559067115188Z" fill="#fec397" stroke="#fec397"></path><path d="M1380.2188621088862,374.7087238635868L1601.7465510684997,526.9559067115188L1625.8248990029097,429.28716408088803Z" fill="#ffb991" stroke="#ffb991"></path><path d="M1625.8248990029097,429.28716408088803L1601.7465510684997,526.9559067115188L1723.2529316749424,509.0607262495905Z" fill="#fed89d" stroke="#fed89d"></path><path d="M1625.8248990029097,429.28716408088803L1723.2529316749424,509.0607262495905L1704.2497719917446,417.579582715407Z" fill="#ffcd94" stroke="#ffcd94"></path><path d="M-91.67244477197528,557.2023468185216L-97.42079841904342,810.1780875585973L-78.15405934117734,637.6663079112768Z" fill="#fc4b69" stroke="#fc4b69"></path><path d="M-91.67244477197528,557.2023468185216L-78.15405934117734,637.6663079112768L64.64817272499204,624.9127035867423Z" fill="#ea3e30" stroke="#ea3e30"></path><path d="M134.6331745851785,485.475106369704L64.64817272499204,624.9127035867423L175.35552880726755,560.5770892091095Z" fill="#a67258" stroke="#a67258"></path><path d="M175.35552880726755,560.5770892091095L64.64817272499204,624.9127035867423L211.66521876119077,716.8697904702276Z" fill="#a47492" stroke="#a47492"></path><path d="M175.35552880726755,560.5770892091095L211.66521876119077,716.8697904702276L338.3566051349044,691.1932805087417Z" fill="#978bae" stroke="#978bae"></path><path d="M175.35552880726755,560.5770892091095L338.3566051349044,691.1932805087417L410.12193666771054,566.085538174957Z" fill="#8c866d" stroke="#8c866d"></path><path d="M410.12193666771054,566.085538174957L338.3566051349044,691.1932805087417L488.2319694198668,688.8305397704244Z" fill="#a09a7e" stroke="#a09a7e"></path><path d="M410.12193666771054,566.085538174957L488.2319694198668,688.8305397704244L581.4740716014057,491.4156226068735Z" fill="#9c7453" stroke="#9c7453"></path><path d="M581.4740716014057,491.4156226068735L488.2319694198668,688.8305397704244L676.2646129913628,622.2006632108241Z" fill="#b26478" stroke="#b26478"></path><path d="M581.4740716014057,491.4156226068735L676.2646129913628,622.2006632108241L685.0235104188323,566.1780147347599Z" fill="#c27157" stroke="#c27157"></path><path d="M685.0235104188323,566.1780147347599L676.2646129913628,622.2006632108241L867.4188759550452,581.2145873811096Z" fill="#d76e37" stroke="#d76e37"></path><path d="M867.4188759550452,581.2145873811096L676.2646129913628,622.2006632108241L822.329651741311,700.5274777673185Z" fill="#ef804e" stroke="#ef804e"></path><path d="M867.4188759550452,581.2145873811096L822.329651741311,700.5274777673185L1000.9829729329795,640.103561449796Z" fill="#f4a25c" stroke="#f4a25c"></path><path d="M867.4188759550452,581.2145873811096L1000.9829729329795,640.103561449796L990.6286295503378,528.7921238411218Z" fill="#e3a42d" stroke="#e3a42d"></path><path d="M990.6286295503378,528.7921238411218L1000.9829729329795,640.103561449796L1079.391476539895,515.986443143338Z" fill="#e3b832" stroke="#e3b832"></path><path d="M1079.391476539895,515.986443143338L1000.9829729329795,640.103561449796L1136.5175121836364,658.2428222615272Z" fill="#da9b45" stroke="#da9b45"></path><path d="M1079.391476539895,515.986443143338L1136.5175121836364,658.2428222615272L1321.033805720508,495.0128699373454Z" fill="#c27b2e" stroke="#c27b2e"></path><path d="M1321.033805720508,495.0128699373454L1136.5175121836364,658.2428222615272L1319.4340066518635,679.8096047714353Z" fill="#cb6d5e" stroke="#cb6d5e"></path><path d="M1321.033805720508,495.0128699373454L1319.4340066518635,679.8096047714353L1418.7769999913871,566.6966467816383Z" fill="#d56f66" stroke="#d56f66"></path><path d="M1418.7769999913871,566.6966467816383L1319.4340066518635,679.8096047714353L1477.0902635715902,690.784764289856Z" fill="#f386b6" stroke="#f386b6"></path><path d="M1418.7769999913871,566.6966467816383L1477.0902635715902,690.784764289856L1541.6467030718923,689.4957668613642Z" fill="#f78ed5" stroke="#f78ed5"></path><path d="M1418.7769999913871,566.6966467816383L1541.6467030718923,689.4957668613642L1601.7465510684997,526.9559067115188Z" fill="#e784a4" stroke="#e784a4"></path><path d="M1601.7465510684997,526.9559067115188L1541.6467030718923,689.4957668613642L1752.7838481869549,647.087683416903Z" fill="#ee97bd" stroke="#ee97bd"></path><path d="M1601.7465510684997,526.9559067115188L1752.7838481869549,647.087683416903L1723.2529316749424,509.0607262495905Z" fill="#e9a399" stroke="#e9a399"></path><path d="M-78.15405934117734,637.6663079112768L-97.42079841904342,810.1780875585973L64.64817272499204,624.9127035867423Z" fill="#ff557e" stroke="#ff557e"></path><path d="M64.64817272499204,624.9127035867423L-97.42079841904342,810.1780875585973L75.98789353854954,871.9241656176746Z" fill="#ec7693" stroke="#ec7693"></path><path d="M64.64817272499204,624.9127035867423L75.98789353854954,871.9241656176746L211.66521876119077,716.8697904702276Z" fill="#bf88bc" stroke="#bf88bc"></path><path d="M211.66521876119077,716.8697904702276L75.98789353854954,871.9241656176746L258.80909252911806,879.246518611908Z" fill="#a3afd5" stroke="#a3afd5"></path><path d="M211.66521876119077,716.8697904702276L258.80909252911806,879.246518611908L338.3566051349044,691.1932805087417Z" fill="#9fabc9" stroke="#9fabc9"></path><path d="M338.3566051349044,691.1932805087417L258.80909252911806,879.246518611908L419.951508063823,838.4639698918909Z" fill="#a3bfb6" stroke="#a3bfb6"></path><path d="M338.3566051349044,691.1932805087417L419.951508063823,838.4639698918909L488.2319694198668,688.8305397704244Z" fill="#a9b1a8" stroke="#a9b1a8"></path><path d="M488.2319694198668,688.8305397704244L419.951508063823,838.4639698918909L577.2775151208043,776.0021600313485Z" fill="#b8a6ba" stroke="#b8a6ba"></path><path d="M488.2319694198668,688.8305397704244L577.2775151208043,776.0021600313485L676.2646129913628,622.2006632108241Z" fill="#c87dcd" stroke="#c87dcd"></path><path d="M676.2646129913628,622.2006632108241L577.2775151208043,776.0021600313485L667.1512175258249,789.9244901631027Z" fill="#d687c1" stroke="#d687c1"></path><path d="M676.2646129913628,622.2006632108241L667.1512175258249,789.9244901631027L822.329651741311,700.5274777673185Z" fill="#eb8aa0" stroke="#eb8aa0"></path><path d="M822.329651741311,700.5274777673185L667.1512175258249,789.9244901631027L821.5749092493206,870.4190130997449Z" fill="#f8a68c" stroke="#f8a68c"></path><path d="M822.329651741311,700.5274777673185L821.5749092493206,870.4190130997449L984.3934478983283,778.3568086847663Z" fill="#ffc189" stroke="#ffc189"></path><path d="M822.329651741311,700.5274777673185L984.3934478983283,778.3568086847663L1000.9829729329795,640.103561449796Z" fill="#ffc091" stroke="#ffc091"></path><path d="M1000.9829729329795,640.103561449796L984.3934478983283,778.3568086847663L1136.5175121836364,658.2428222615272Z" fill="#f6c098" stroke="#f6c098"></path><path d="M1136.5175121836364,658.2428222615272L984.3934478983283,778.3568086847663L1173.2906424533576,879.2980974074453Z" fill="#e9bc97" stroke="#e9bc97"></path><path d="M1136.5175121836364,658.2428222615272L1173.2906424533576,879.2980974074453L1319.4340066518635,679.8096047714353Z" fill="#d58a97" stroke="#d58a97"></path><path d="M1319.4340066518635,679.8096047714353L1173.2906424533576,879.2980974074453L1334.2959289066494,875.2063709869981Z" fill="#e2a4b0" stroke="#e2a4b0"></path><path d="M1319.4340066518635,679.8096047714353L1334.2959289066494,875.2063709869981L1477.0902635715902,690.784764289856Z" fill="#f79ed7" stroke="#f79ed7"></path><path d="M1477.0902635715902,690.784764289856L1334.2959289066494,875.2063709869981L1466.8069345224649,868.4710712078959Z" fill="#ffb5e9" stroke="#ffb5e9"></path><path d="M1477.0902635715902,690.784764289856L1466.8069345224649,868.4710712078959L1550.2366065513343,842.737480122596Z" fill="#ffb9ff" stroke="#ffb9ff"></path><path d="M1477.0902635715902,690.784764289856L1550.2366065513343,842.737480122596L1541.6467030718923,689.4957668613642Z" fill="#ffacff" stroke="#ffacff"></path><path d="M1541.6467030718923,689.4957668613642L1550.2366065513343,842.737480122596L1730.8244652114809,805.8568259049207Z" fill="#ffbfff" stroke="#ffbfff"></path><path d="M1541.6467030718923,689.4957668613642L1730.8244652114809,805.8568259049207L1752.7838481869549,647.087683416903Z" fill="#ffb5ff" stroke="#ffb5ff"></path><path d="M1752.7838481869549,647.087683416903L1730.8244652114809,805.8568259049207L1747.5888738501817,927.6028642896563Z" fill="#ffd2ff" stroke="#ffd2ff"></path><path d="M-97.42079841904342,810.1780875585973L-69.0522044710815,940.7774353120476L75.98789353854954,871.9241656176746Z" fill="#ff8582" stroke="#ff8582"></path><path d="M75.98789353854954,871.9241656176746L-69.0522044710815,940.7774353120476L33.79321522079408,990.4924863483757Z" fill="#ec9093" stroke="#ec9093"></path><path d="M75.98789353854954,871.9241656176746L33.79321522079408,990.4924863483757L212.21427398733795,992.8132935427129Z" fill="#c3a8b8" stroke="#c3a8b8"></path><path d="M75.98789353854954,871.9241656176746L212.21427398733795,992.8132935427129L258.80909252911806,879.246518611908Z" fill="#a3bad5" stroke="#a3bad5"></path><path d="M258.80909252911806,879.246518611908L212.21427398733795,992.8132935427129L315.9774038940668,1010.2715942915529Z" fill="#9fc6cb" stroke="#9fc6cb"></path><path d="M258.80909252911806,879.246518611908L315.9774038940668,1010.2715942915529L419.951508063823,838.4639698918909Z" fill="#a2cfb8" stroke="#a2cfb8"></path><path d="M419.951508063823,838.4639698918909L315.9774038940668,1010.2715942915529L489.87682395614684,953.6679213959724Z" fill="#a8d5a7" stroke="#a8d5a7"></path><path d="M419.951508063823,838.4639698918909L489.87682395614684,953.6679213959724L577.2775151208043,776.0021600313485Z" fill="#b8beba" stroke="#b8beba"></path><path d="M577.2775151208043,776.0021600313485L489.87682395614684,953.6679213959724L667.1512175258249,789.9244901631027Z" fill="#c8a5cc" stroke="#c8a5cc"></path><path d="M667.1512175258249,789.9244901631027L489.87682395614684,953.6679213959724L732.7327101677656,990.2499502245337Z" fill="#d3aac5" stroke="#d3aac5"></path><path d="M667.1512175258249,789.9244901631027L732.7327101677656,990.2499502245337L821.5749092493206,870.4190130997449Z" fill="#f0b898" stroke="#f0b898"></path><path d="M821.5749092493206,870.4190130997449L732.7327101677656,990.2499502245337L863.2310677226633,943.5680154617876Z" fill="#ffc180" stroke="#ffc180"></path><path d="M821.5749092493206,870.4190130997449L863.2310677226633,943.5680154617876L984.3934478983283,778.3568086847663Z" fill="#ffdb8b" stroke="#ffdb8b"></path><path d="M984.3934478983283,778.3568086847663L863.2310677226633,943.5680154617876L934.1010828595608,972.3588708881289Z" fill="#ffe890" stroke="#ffe890"></path><path d="M984.3934478983283,778.3568086847663L934.1010828595608,972.3588708881289L1089.1867603361607,929.1062957234681Z" fill="#fffe99" stroke="#fffe99"></path><path d="M984.3934478983283,778.3568086847663L1089.1867603361607,929.1062957234681L1173.2906424533576,879.2980974074453Z" fill="#eddb97" stroke="#eddb97"></path><path d="M1173.2906424533576,879.2980974074453L1089.1867603361607,929.1062957234681L1315.361769190058,959.1753349732608Z" fill="#d4ae94" stroke="#d4ae94"></path><path d="M1173.2906424533576,879.2980974074453L1315.361769190058,959.1753349732608L1334.2959289066494,875.2063709869981Z" fill="#e2b3b0" stroke="#e2b3b0"></path><path d="M1334.2959289066494,875.2063709869981L1315.361769190058,959.1753349732608L1466.8069345224649,868.4710712078959Z" fill="#f6bdd5" stroke="#f6bdd5"></path><path d="M1466.8069345224649,868.4710712078959L1315.361769190058,959.1753349732608L1468.0370785295963,1010.9574876632541Z" fill="#ffc2e6" stroke="#ffc2e6"></path><path d="M1466.8069345224649,868.4710712078959L1468.0370785295963,1010.9574876632541L1515.40748228319,929.6245059650391Z" fill="#ffc9ff" stroke="#ffc9ff"></path><path d="M1466.8069345224649,868.4710712078959L1515.40748228319,929.6245059650391L1550.2366065513343,842.737480122596Z" fill="#ffccff" stroke="#ffccff"></path><path d="M1550.2366065513343,842.737480122596L1515.40748228319,929.6245059650391L1747.5888738501817,927.6028642896563Z" fill="#ffd6ff" stroke="#ffd6ff"></path><path d="M1550.2366065513343,842.737480122596L1747.5888738501817,927.6028642896563L1730.8244652114809,805.8568259049207Z" fill="#ffdcff" stroke="#ffdcff"></path><path d="M33.79321522079408,990.4924863483757L315.9774038940668,1010.2715942915529L212.21427398733795,992.8132935427129Z" fill="#a1bcd7" stroke="#a1bcd7"></path><path d="M315.9774038940668,1010.2715942915529L1468.0370785295963,1010.9574876632541L732.7327101677656,990.2499502245337Z" fill="#ffcc85" stroke="#ffcc85"></path><path d="M315.9774038940668,1010.2715942915529L732.7327101677656,990.2499502245337L489.87682395614684,953.6679213959724Z" fill="#bbbcbe" stroke="#bbbcbe"></path><path d="M732.7327101677656,990.2499502245337L1468.0370785295963,1010.9574876632541L934.1010828595608,972.3588708881289Z" fill="#f5ec98" stroke="#f5ec98"></path><path d="M732.7327101677656,990.2499502245337L934.1010828595608,972.3588708881289L863.2310677226633,943.5680154617876Z" fill="#ffcd85" stroke="#ffcd85"></path><path d="M934.1010828595608,972.3588708881289L1468.0370785295963,1010.9574876632541L1315.361769190058,959.1753349732608Z" fill="#dbafa3" stroke="#dbafa3"></path><path d="M934.1010828595608,972.3588708881289L1315.361769190058,959.1753349732608L1089.1867603361607,929.1062957234681Z" fill="#e6d096" stroke="#e6d096"></path><path d="M1468.0370785295963,1010.9574876632541L1747.5888738501817,927.6028642896563L1515.40748228319,929.6245059650391Z" fill="#ffd3ff" stroke="#ffd3ff"></path></g><filter id="noise"><feTurbulence type="fractalNoise" in="fillPaint" fill="#F00" baseFrequency="0.7" numOctaves="10" stitchTiles="stitch"></feTurbulence><feComponentTransfer><feFuncR type="linear" slope="2" intercept="-.5"></feFuncR><feFuncG type="linear" slope="2" intercept="-.5"></feFuncG><feFuncB type="linear" slope="2" intercept="-.5"></feFuncB></feComponentTransfer><feColorMatrix type="matrix" values="0.3333 0.3333 0.3333 0 0 
 0.3333 0.3333 0.3333 0 0 
 0.3333 0.3333 0.3333 0 0 
 0 0 0 1 0"></feColorMatrix></filter><rect opacity="1" width="100%" height="100%" filter="url(#noise)"></rect></svg>